# xmcd CD database file
#
# Track frame offsets:
#	150
#	58711
#	96465
#	127090
#	169956
#
# Disc length: 2638 seconds
#
# Revision: 1
# Processed by: cddbd v1.4PL0 Copyright (c) Steve Scherf et al.
# Submitted via: CDex 1.50beta8
#
DISCID=480a4c05
DTITLE=Wes Montgomery and Wynton Kelly Trio - Smokin' at the Half Note
DYEAR=1965
DGENRE=Jazz
TTITLE0=No Blues
TTITLE1=If You Could See Me Now
TTITLE2=Unit 7
TTITLE3=Four On Six
TTITLE4=What's New?
EXTD=YEAR: 1965
EXTT0=
EXTT1=
EXTT2=
EXTT3=
EXTT4=
PLAYORDER=
